inDegrees=yes
name=ik_tiny_file
DataType=double
version=3
OpenSimVersion=4.4-2022-07-23-0e9fedc
endheader
time	pelvis_tilt	pelvis_list	pelvis_rotation	pelvis_tx	pelvis_ty	pelvis_tz	hip_flexion_r	hip_adduction_r	hip_rotation_r	knee_angle_r	knee_angle_r_beta	ankle_angle_r	subtalar_angle_r	mtp_angle_r	hip_flexion_l	hip_adduction_l	hip_rotation_l	knee_angle_l	knee_angle_l_beta	ankle_angle_l	subtalar_angle_l	mtp_angle_l	lumbar_extension	lumbar_bending	lumbar_rotation	arm_flex_r	arm_add_r	arm_rot_r	elbow_flex_r	pro_sup_r	wrist_flex_r	wrist_dev_r	arm_flex_l	arm_add_l	arm_rot_l	elbow_flex_l	pro_sup_l	wrist_flex_l	wrist_dev_l
3.04	9.445756189158981	-3.641424263172643	0.8924078820525593	0	0.9399999999999999	0	29.85735426787122	-9.473629500221422	0	54.55338744246918	0.9521362289872158	-3.619422311200419	0	0	29.85735426787122	-9.473629500221422	0	54.55338744246918	0.9521362289872158	-3.619422311200419	0	0	-9.345509697033899	3.212667816533104	0.7959611752620888	3.401727094287002	-8.008982214740206	-6.523252925825312	12.91263047575033	45.61568081887658	0	4.955901558106537	2.738296757104285	0.8395661385074232	-0.4810237780533845	0.09318270176605117	45.61568081887658	0	4.955901558106537
3.06	9.393724305853288	-3.630071755499294	0.7972827110066041	0	0.9399999999999999	0	29.96278488107329	-9.482542757776903	0	54.58972093875129	0.9527703681260998	-3.631428519266053	0	0	29.96278488107329	-9.482542757776903	0	54.58972093875129	0.9527703681260998	-3.631428519266053	0	0	-9.313202198454618	3.176741959264005	0.7445067903446908	3.432929639136979	-8.533975710156744	-7.774489295009768	15.81003942583357	45.60685583176139	0	4.957017734646294	2.716032977309463	0.8446562074427512	-0.4322537650948232	0.09329622932550155	45.60685583176139	0	4.957017734646294
3.08	9.400491496305248	-3.632315008353151	0.7222842910789209	0	0.9399999999999999	0	30.06868079752359	-9.49135792773882	0	54.62640663627737	0.9534106543363207	-3.64345641338986	0	0	30.06868079752359	-9.49135792773882	0	54.62640663627737	0.9534106543363207	-3.64345641338986	0	0	-9.36144956526471	3.160959178322698	0.6700061338415325	3.442947222890786	-8.63523708569412	-9.606427527932746	19.52513779844546	45.59809483949165	0	4.958109436335698	2.743971794865127	0.8005514584770426	-0.4254812653353675	0.09395050586118572	45.59809483949165	0	4.958109436335698
3.1	9.38139069401597	-3.650484623278217	0.6384224705969416	0	0.9399999999999999	0	30.17156006927939	-9.49986344303111	0	54.66200796111745	0.9540320146728519	-3.655130382408	0	0	30.17156006927939	-9.49986344303111	0	54.66200796111745	0.9540320146728519	-3.655130382408	0	0	-9.344680854224343	3.163941147335186	0.654959647533412	3.379631398808757	-8.824481680674644	-11.56033726631949	23.18577119666586	45.58962526169616	0	4.959155924599767	2.73601818099758	0.7466522826000089	-0.40723074894179	0.09422563723417937	45.58962526169616	0	4.959155924599767
3.12	9.304361401547206	-3.660719121699644	0.5524756546810673	0	0.9399999999999999	0	30.28010018620729	-9.508814279217153	0	54.69940965860168	0.9546847974397867	-3.66744509286591	0	0	30.28010018620729	-9.508814279217153	0	54.69940965860168	0.9546847974397867	-3.66744509286591	0	0	-9.256476782800039	3.157677316471659	0.6911657108954159	3.366900889967029	-8.8930706171907	-13.20048177261767	26.99276617818923	45.58070329740131	0	4.960252527878613	2.701011545993366	0.7290309491745584	-0.3871283750214281	0.0943457443296549	45.58070329740131	0	4.960252527878613
3.14	9.275190866045429	-3.6662335369208	0.5043478038715711	0	0.9399999999999999	0	30.38022458367395	-9.516875251917408	0	54.73410763743809	0.9552903914142693	-3.678762318217296	0	0	30.38022458367395	-9.516875251917408	0	54.73410763743809	0.9552903914142693	-3.678762318217296	0	0	-9.23989388238048	3.142439369911903	0.6814925557016946	3.457934237117949	-9.668285471770357	-13.52282562372269	30.0173994644691	45.57261752489561	0	4.961220598794606	2.747366011607629	0.6500671509481138	-0.4320879189908264	0.09528740894146696	45.57261752489561	0	4.961220598794606
3.16	9.266733625661852	-3.675010328836255	0.4683767021479729	0	0.9399999999999999	0	30.48630779553535	-9.525303020918594	0	54.77097393142829	0.9559338296274066	-3.69072733978129	0	0	30.48630779553535	-9.525303020918594	0	54.77097393142829	0.9559338296274066	-3.69072733978129	0	0	-9.242539941821903	3.13031739733964	0.684226646020513	3.421602079883729	-10.05921159396318	-14.13906686969669	33.53413279997822	45.56413494050378	0	4.962222112084515	2.808304777945964	0.5644859635680666	-0.4613902845176718	0.09562214818802373	45.56413494050378	0	4.962222112084515
3.18	9.270819489801116	-3.688917322101357	0.4451574464052816	0	0.9399999999999999	0	30.58533834128953	-9.533127558557599	0	54.80532919063705	0.9565334420159755	-3.701888366806649	0	0	30.58533834128953	-9.533127558557599	0	54.80532919063705	0.9565334420159755	-3.701888366806649	0	0	-9.238593222338036	3.134784368066965	0.716805313555369	3.43353238580002	-10.65130310663283	-14.77683857441781	36.91746243674259	45.55624723589394	0	4.963147021579365	2.80388542652672	0.5313586792141775	-0.4232422706664921	0.09531189392299144	45.55624723589394	0	4.963147021579365
3.2	9.262817477315497	-3.701494769622129	0.44052536058215	0	0.9399999999999999	0	30.68316990889055	-9.54081743953564	0	54.8392087570039	0.9571247519982249	-3.712906499339875	0	0	30.68316990889055	-9.54081743953564	0	54.8392087570039	0.9571247519982249	-3.712906499339875	0	0	-9.234394054873718	3.160724542191662	0.7481663511300332	3.428183871876379	-11.22775463132667	-15.54165098860646	40.40719229371858	45.54848366241567	0	4.964051324677205	2.822605445626655	0.5241328004710382	-0.3961617500822566	0.09624362824913665	45.54848366241567	0	4.964051324677205
3.22	9.261960400590601	-3.713819028085906	0.4567488763036857	0	0.9399999999999999	0	30.78671797396769	-9.54888871822336	0	54.87508113435221	0.9577508430934709	-3.724553176724422	0	0	30.78671797396769	-9.54888871822336	0	54.87508113435221	0.9577508430934709	-3.724553176724422	0	0	-9.221746380331904	3.192640205978277	0.7486294760244984	3.345291080370991	-11.5508385922275	-16.52418057779877	44.46114917035085	45.54031702241531	0	4.964993836911614	2.820250312338614	0.5323819304149009	-0.4089063061757077	0.09706887038678899	45.54031702241531	0	4.964993836911614
3.24	9.268381303958245	-3.723197511310888	0.4836177351748643	0	0.9399999999999999	0	30.87563157880249	-9.55579419887923	0	54.90579465617837	0.9582868951742205	-3.734549800899825	0	0	30.87563157880249	-9.55579419887923	0	54.90579465617837	0.9582868951742205	-3.734549800899825	0	0	-9.232972339672207	3.220484999759419	0.7253163019574262	3.488626268278147	-12.21782234081108	-17.10356604905942	47.94676992938285	45.53332180263316	0	4.965796683474971	2.860450878290762	0.5419593959234361	-0.4587070338115904	0.09770394851942292	45.53332180263316	0	4.965796683474971
3.26	9.27607066796306	-3.718871452065281	0.5069353519333685	0	0.9399999999999999	0	30.96245620136419	-9.562507094771322	0	54.93572663128963	0.9588093066915369	-3.744306041671583	0	0	30.96245620136419	-9.562507094771322	0	54.93572663128963	0.9588093066915369	-3.744306041671583	0	0	-9.22840904264347	3.238208239120258	0.7701640057873212	3.660226178053188	-12.75047578440251	-17.71573741639719	51.45371286731778	45.52651236975665	0	4.966573309083698	2.874066407172037	0.5482595991015891	-0.4431283765538709	0.09721477501313336	45.52651236975665	0	4.966573309083698
3.28	9.262871954688055	-3.704706679488154	0.5378775581455939	0	0.9399999999999999	0	31.05136300344116	-9.569312004548918	0	54.96638952360166	0.9593444751205663	-3.754281149712684	0	0	31.05136300344116	-9.569312004548918	0	54.96638952360166	0.9593444751205663	-3.754281149712684	0	0	-9.181585129508965	3.248607057992992	0.8035504976134507	3.848433359527307	-13.07681453843175	-18.06553715618027	55.10863014441649	45.51959055824047	0	4.967353454016836	2.813100680671073	0.5764307272709608	-0.4018566305237388	0.09700064093427808	45.51959055824047	0	4.967353454016836
3.3	9.300443667232262	-3.716514373732406	0.5834750507608092	0	0.9399999999999999	0	31.13307407675331	-9.575430946730377	0	54.99479453122383	0.9598402360276274	-3.763414463594891	0	0	31.13307407675331	-9.575430946730377	0	54.99479453122383	0.9598402360276274	-3.763414463594891	0	0	-9.231076054739034	3.272809803318672	0.7974593059670817	4.194884363799512	-13.52059442208351	-18.20657775047	58.67796669284733	45.51333296493586	0	4.968043848187681	2.79792228244153	0.575793272979217	-0.4483152087952696	0.09722235907246989	45.51333296493586	0	4.968043848187681
3.32	9.381947660541947	-3.75243847646708	0.6218432539830119	0	0.9399999999999999	0	31.20687836286916	-9.580965988293546	0	55.02034181164755	0.9602861201859515	-3.771667526685034	0	0	31.20687836286916	-9.580965988293546	0	55.02034181164755	0.9602861201859515	-3.771667526685034	0	0	-9.306154760722686	3.311298980891097	0.8362437583619	4.557369982789528	-14.13248845829771	-18.1415356310461	61.97842871424074	45.50767336243534	0	4.968668189492697	2.778456987252699	0.5830295802948771	-0.5876894381758274	0.09682000048185521	45.50767336243534	0	4.968668189492697
3.34	9.454015523001766	-3.782550631864931	0.6491340915117586	0	0.9399999999999999	0	31.21237730220988	-9.581529709739828	0	55.02185903748543	0.9603126007723189	-3.772323783004099	0	0	31.21237730220988	-9.581529709739828	0	55.02185903748543	0.9603126007723189	-3.772323783004099	0	0	-9.409475715758649	3.364963868426664	0.8824316093521922	5.019313743630915	-14.71245590327298	-17.90415130731999	65.22901506718352	45.50713300170907	0	4.968742862842647	2.803003435012199	0.6135696961002853	-0.6448177202353952	0.09528481960036991	45.50713300170907	0	4.968742862842647
3.36	9.567743936126572	-3.841887641511783	0.7211953595400954	0	0.9399999999999999	0	31.22023398399192	-9.582335815674478	0	55.02402346889549	0.9603503772268579	-3.773261705175921	0	0	31.22023398399192	-9.582335815674478	0	55.02402346889549	0.9603503772268579	-3.773261705175921	0	0	-9.523067777751111	3.476395821763087	0.9158875010469434	5.522042237780912	-15.43517820334933	-17.83021498287967	68.34861534425985	45.5063603309567	0	4.968849606327551	2.78352523930935	0.6481678021319033	-0.6624149261651194	0.09460044936047414	45.5063603309567	0	4.968849606327551
3.38	9.653896358934752	-3.885053941382495	0.7763309629214202	0	0.9399999999999999	0	31.22721624983549	-9.583051130562623	0	55.02594777632547	0.9603839627273317	-3.7740950682399	0	0	31.22721624983549	-9.583051130562623	0	55.02594777632547	0.9603839627273317	-3.7740950682399	0	0	-9.63546614247411	3.548973893141566	0.9269105578984658	6.271345361185419	-16.35043889614867	-17.76513725332991	70.93655542832266	45.50567439226653	0	4.968944184121463	2.76475285030888	0.6837711153783882	-0.6639457296264014	0.0931213010078928	45.50567439226653	0	4.968944184121463
3.4	9.745601371160586	-3.933551414552803	0.830077265864634	0	0.9399999999999999	0	31.23446355728538	-9.583792723006585	0	55.02794542205027	0.9604188282225178	-3.774959945452141	0	0	31.23446355728538	-9.583792723006585	0	55.02794542205027	0.9604188282225178	-3.774959945452141	0	0	-9.726030912181292	3.606026258501644	0.9429520598215844	6.901625732738486	-17.0755116718938	-17.60785933138292	73.55056388096571	45.50496299816326	0	4.969042105197865	2.708159520869994	0.7037599913344376	-0.6395729996711151	0.09205356481191239	45.50496299816326	0	4.969042105197865
